<mxfile host="app.diagrams.net" modified="2023-07-04T11:11:58.112Z" agent="Mozilla/5.0 (Windows NT 10.0; Win64; x64; rv:109.0) Gecko/20100101 Firefox/114.0" etag="1hUP1dtG8S0yM6pLWgiJ" version="21.5.2" type="device">
  <diagram name="Seite-1" id="pwHJBEYoPN8gfofOHMQj">
    <mxGraphModel dx="1434" dy="754" grid="1" gridSize="10" guides="1" tooltips="1" connect="1" arrows="1" fold="1" page="1" pageScale="1" pageWidth="827" pageHeight="1169" background="none" math="0" shadow="0">
      <root>
        <mxCell id="0" />
        <mxCell id="1" parent="0" />
        <mxCell id="qxxUC0PWJHGUvFRXpn1j-2" value="Tourplanner" style="strokeWidth=1;shadow=0;dashed=0;align=center;html=1;shape=mxgraph.mockup.containers.window;align=left;verticalAlign=top;spacingLeft=8;strokeColor2=#008cff;strokeColor3=#c4c4c4;fontColor=#666666;mainText=;fontSize=17;labelBackgroundColor=none;whiteSpace=wrap;" parent="1" vertex="1">
          <mxGeometry x="30" y="20" width="660" height="380" as="geometry" />
        </mxCell>
        <mxCell id="qxxUC0PWJHGUvFRXpn1j-3" value="" style="strokeWidth=1;shadow=0;dashed=0;align=center;html=1;shape=mxgraph.mockup.forms.rrect;rSize=0;strokeColor=#999999;" parent="1" vertex="1">
          <mxGeometry x="30" y="50" width="498" height="30" as="geometry" />
        </mxCell>
        <mxCell id="qxxUC0PWJHGUvFRXpn1j-4" value="File" style="strokeColor=inherit;fillColor=inherit;gradientColor=inherit;strokeWidth=1;shadow=0;dashed=0;align=center;html=1;shape=mxgraph.mockup.forms.rrect;rSize=0;fontSize=17;fontColor=#666666;whiteSpace=wrap;" parent="qxxUC0PWJHGUvFRXpn1j-3" vertex="1">
          <mxGeometry width="83" height="30" as="geometry" />
        </mxCell>
        <mxCell id="qxxUC0PWJHGUvFRXpn1j-5" value="Edit" style="strokeColor=inherit;fillColor=inherit;gradientColor=inherit;strokeWidth=1;shadow=0;dashed=0;align=center;html=1;shape=mxgraph.mockup.forms.rrect;rSize=0;fontSize=17;fontColor=#666666;whiteSpace=wrap;" parent="qxxUC0PWJHGUvFRXpn1j-3" vertex="1">
          <mxGeometry x="83" width="83" height="30" as="geometry" />
        </mxCell>
        <mxCell id="qxxUC0PWJHGUvFRXpn1j-6" value="Help" style="strokeColor=inherit;fillColor=inherit;gradientColor=inherit;strokeWidth=1;shadow=0;dashed=0;align=center;html=1;shape=mxgraph.mockup.forms.rrect;rSize=0;fontSize=17;fontColor=#666666;whiteSpace=wrap;" parent="qxxUC0PWJHGUvFRXpn1j-3" vertex="1">
          <mxGeometry x="166" width="83" height="30" as="geometry" />
        </mxCell>
        <mxCell id="qxxUC0PWJHGUvFRXpn1j-10" value="" style="strokeWidth=1;shadow=0;dashed=0;align=center;html=1;shape=mxgraph.mockup.forms.rrect;rSize=0;strokeColor=#999999;fillColor=#ffffff;" parent="1" vertex="1">
          <mxGeometry x="30" y="110" width="160" height="290" as="geometry" />
        </mxCell>
        <mxCell id="qxxUC0PWJHGUvFRXpn1j-11" value="Tours" style="strokeWidth=1;shadow=0;dashed=0;align=center;html=1;shape=mxgraph.mockup.forms.rrect;rSize=0;strokeColor=#999999;fontColor=#008cff;fontSize=17;fillColor=#ffffff;resizeWidth=1;whiteSpace=wrap;" parent="qxxUC0PWJHGUvFRXpn1j-10" vertex="1">
          <mxGeometry width="160" height="30" relative="1" as="geometry">
            <mxPoint y="-1" as="offset" />
          </mxGeometry>
        </mxCell>
        <mxCell id="qxxUC0PWJHGUvFRXpn1j-12" value="Item 1" style="strokeWidth=1;shadow=0;dashed=0;align=center;html=1;shape=mxgraph.mockup.forms.anchor;fontSize=17;fontColor=#666666;align=left;spacingLeft=5;resizeWidth=1;whiteSpace=wrap;" parent="qxxUC0PWJHGUvFRXpn1j-10" vertex="1">
          <mxGeometry width="160" height="20" relative="1" as="geometry">
            <mxPoint y="30" as="offset" />
          </mxGeometry>
        </mxCell>
        <mxCell id="qxxUC0PWJHGUvFRXpn1j-13" value="Item 2" style="strokeWidth=1;shadow=0;dashed=0;align=center;html=1;shape=mxgraph.mockup.forms.anchor;fontSize=17;fontColor=#666666;align=left;spacingLeft=5;resizeWidth=1;whiteSpace=wrap;" parent="qxxUC0PWJHGUvFRXpn1j-10" vertex="1">
          <mxGeometry width="160" height="20" relative="1" as="geometry">
            <mxPoint y="50" as="offset" />
          </mxGeometry>
        </mxCell>
        <mxCell id="qxxUC0PWJHGUvFRXpn1j-14" value="Item 3" style="strokeWidth=1;shadow=0;dashed=0;align=center;html=1;shape=mxgraph.mockup.forms.rrect;rSize=0;fontSize=17;fontColor=#666666;align=left;spacingLeft=5;fillColor=#ddeeff;strokeColor=none;resizeWidth=1;whiteSpace=wrap;" parent="qxxUC0PWJHGUvFRXpn1j-10" vertex="1">
          <mxGeometry width="160" height="20" relative="1" as="geometry">
            <mxPoint y="70" as="offset" />
          </mxGeometry>
        </mxCell>
        <mxCell id="qxxUC0PWJHGUvFRXpn1j-16" value="Search" style="strokeWidth=1;shadow=0;dashed=0;align=center;html=1;shape=mxgraph.mockup.forms.searchBox;strokeColor=#999999;mainText=;strokeColor2=#008cff;fontColor=#666666;fontSize=17;align=left;spacingLeft=3;whiteSpace=wrap;" parent="1" vertex="1">
          <mxGeometry x="520" y="50" width="170" height="30" as="geometry" />
        </mxCell>
        <mxCell id="qxxUC0PWJHGUvFRXpn1j-17" value="" style="shape=table;html=1;whiteSpace=wrap;startSize=0;container=1;collapsible=0;childLayout=tableLayout;strokeWidth=2;" parent="1" vertex="1">
          <mxGeometry x="190" y="250" width="500" height="150" as="geometry" />
        </mxCell>
        <mxCell id="qxxUC0PWJHGUvFRXpn1j-18" value="" style="shape=tableRow;horizontal=0;startSize=0;swimlaneHead=0;swimlaneBody=0;top=0;left=0;bottom=0;right=0;collapsible=0;dropTarget=0;fillColor=none;points=[[0,0.5],[1,0.5]];portConstraint=eastwest;" parent="qxxUC0PWJHGUvFRXpn1j-17" vertex="1">
          <mxGeometry width="500" height="51" as="geometry" />
        </mxCell>
        <mxCell id="qxxUC0PWJHGUvFRXpn1j-19" value="Date" style="shape=partialRectangle;html=1;whiteSpace=wrap;connectable=0;fillColor=none;top=0;left=0;bottom=0;right=0;overflow=hidden;fontStyle=1" parent="qxxUC0PWJHGUvFRXpn1j-18" vertex="1">
          <mxGeometry width="167" height="51" as="geometry">
            <mxRectangle width="167" height="51" as="alternateBounds" />
          </mxGeometry>
        </mxCell>
        <mxCell id="qxxUC0PWJHGUvFRXpn1j-20" value="Duration" style="shape=partialRectangle;html=1;whiteSpace=wrap;connectable=0;fillColor=none;top=0;left=0;bottom=0;right=0;overflow=hidden;fontStyle=1" parent="qxxUC0PWJHGUvFRXpn1j-18" vertex="1">
          <mxGeometry x="167" width="166" height="51" as="geometry">
            <mxRectangle width="166" height="51" as="alternateBounds" />
          </mxGeometry>
        </mxCell>
        <mxCell id="qxxUC0PWJHGUvFRXpn1j-52" value="Distance" style="shape=partialRectangle;html=1;whiteSpace=wrap;connectable=0;fillColor=none;top=0;left=0;bottom=0;right=0;overflow=hidden;fontStyle=1" parent="qxxUC0PWJHGUvFRXpn1j-18" vertex="1">
          <mxGeometry x="333" width="167" height="51" as="geometry">
            <mxRectangle width="167" height="51" as="alternateBounds" />
          </mxGeometry>
        </mxCell>
        <mxCell id="qxxUC0PWJHGUvFRXpn1j-21" value="" style="shape=tableRow;horizontal=0;startSize=0;swimlaneHead=0;swimlaneBody=0;top=0;left=0;bottom=0;right=0;collapsible=0;dropTarget=0;fillColor=none;points=[[0,0.5],[1,0.5]];portConstraint=eastwest;" parent="qxxUC0PWJHGUvFRXpn1j-17" vertex="1">
          <mxGeometry y="51" width="500" height="48" as="geometry" />
        </mxCell>
        <mxCell id="qxxUC0PWJHGUvFRXpn1j-22" value="row 1, cell 1" style="shape=partialRectangle;html=1;whiteSpace=wrap;connectable=0;fillColor=none;top=0;left=0;bottom=0;right=0;overflow=hidden;" parent="qxxUC0PWJHGUvFRXpn1j-21" vertex="1">
          <mxGeometry width="167" height="48" as="geometry">
            <mxRectangle width="167" height="48" as="alternateBounds" />
          </mxGeometry>
        </mxCell>
        <mxCell id="qxxUC0PWJHGUvFRXpn1j-23" value="row 1, cell 2" style="shape=partialRectangle;html=1;whiteSpace=wrap;connectable=0;fillColor=none;top=0;left=0;bottom=0;right=0;overflow=hidden;" parent="qxxUC0PWJHGUvFRXpn1j-21" vertex="1">
          <mxGeometry x="167" width="166" height="48" as="geometry">
            <mxRectangle width="166" height="48" as="alternateBounds" />
          </mxGeometry>
        </mxCell>
        <mxCell id="qxxUC0PWJHGUvFRXpn1j-53" value="&lt;br&gt;row 1, cell 3&lt;br&gt;" style="shape=partialRectangle;html=1;whiteSpace=wrap;connectable=0;fillColor=none;top=0;left=0;bottom=0;right=0;overflow=hidden;" parent="qxxUC0PWJHGUvFRXpn1j-21" vertex="1">
          <mxGeometry x="333" width="167" height="48" as="geometry">
            <mxRectangle width="167" height="48" as="alternateBounds" />
          </mxGeometry>
        </mxCell>
        <mxCell id="qxxUC0PWJHGUvFRXpn1j-24" value="" style="shape=tableRow;horizontal=0;startSize=0;swimlaneHead=0;swimlaneBody=0;top=0;left=0;bottom=0;right=0;collapsible=0;dropTarget=0;fillColor=none;points=[[0,0.5],[1,0.5]];portConstraint=eastwest;" parent="qxxUC0PWJHGUvFRXpn1j-17" vertex="1">
          <mxGeometry y="99" width="500" height="51" as="geometry" />
        </mxCell>
        <mxCell id="qxxUC0PWJHGUvFRXpn1j-25" value="row 2, cell 1" style="shape=partialRectangle;html=1;whiteSpace=wrap;connectable=0;fillColor=none;top=0;left=0;bottom=0;right=0;overflow=hidden;" parent="qxxUC0PWJHGUvFRXpn1j-24" vertex="1">
          <mxGeometry width="167" height="51" as="geometry">
            <mxRectangle width="167" height="51" as="alternateBounds" />
          </mxGeometry>
        </mxCell>
        <mxCell id="qxxUC0PWJHGUvFRXpn1j-26" value="row 2, cell 2" style="shape=partialRectangle;html=1;whiteSpace=wrap;connectable=0;fillColor=none;top=0;left=0;bottom=0;right=0;overflow=hidden;" parent="qxxUC0PWJHGUvFRXpn1j-24" vertex="1">
          <mxGeometry x="167" width="166" height="51" as="geometry">
            <mxRectangle width="166" height="51" as="alternateBounds" />
          </mxGeometry>
        </mxCell>
        <mxCell id="qxxUC0PWJHGUvFRXpn1j-54" value="&lt;br&gt;row 2, cell 3&lt;br&gt;" style="shape=partialRectangle;html=1;whiteSpace=wrap;connectable=0;fillColor=none;top=0;left=0;bottom=0;right=0;overflow=hidden;" parent="qxxUC0PWJHGUvFRXpn1j-24" vertex="1">
          <mxGeometry x="333" width="167" height="51" as="geometry">
            <mxRectangle width="167" height="51" as="alternateBounds" />
          </mxGeometry>
        </mxCell>
        <mxCell id="qxxUC0PWJHGUvFRXpn1j-27" value="" style="verticalLabelPosition=bottom;shadow=0;dashed=0;align=center;html=1;verticalAlign=top;strokeWidth=1;shape=mxgraph.mockup.misc.map;" parent="1" vertex="1">
          <mxGeometry x="190" y="80" width="500" height="140" as="geometry" />
        </mxCell>
        <mxCell id="qxxUC0PWJHGUvFRXpn1j-46" value="+" style="strokeWidth=1;shadow=0;dashed=0;align=center;html=1;shape=mxgraph.mockup.buttons.button;strokeColor=#666666;fontColor=#ffffff;mainText=;buttonStyle=round;fontSize=17;fontStyle=1;fillColor=#008cff;whiteSpace=wrap;" parent="1" vertex="1">
          <mxGeometry x="70" y="80" width="40" height="30" as="geometry" />
        </mxCell>
        <mxCell id="qxxUC0PWJHGUvFRXpn1j-47" value="-" style="strokeWidth=1;shadow=0;dashed=0;align=center;html=1;shape=mxgraph.mockup.buttons.button;strokeColor=#666666;fontColor=#ffffff;mainText=;buttonStyle=round;fontSize=17;fontStyle=1;fillColor=#008cff;whiteSpace=wrap;" parent="1" vertex="1">
          <mxGeometry x="110" y="80" width="40" height="30" as="geometry" />
        </mxCell>
        <mxCell id="qxxUC0PWJHGUvFRXpn1j-48" value="..." style="strokeWidth=1;shadow=0;dashed=0;align=center;html=1;shape=mxgraph.mockup.buttons.button;strokeColor=#666666;fontColor=#ffffff;mainText=;buttonStyle=round;fontSize=17;fontStyle=1;fillColor=#008cff;whiteSpace=wrap;" parent="1" vertex="1">
          <mxGeometry x="150" y="80" width="40" height="30" as="geometry" />
        </mxCell>
        <mxCell id="qxxUC0PWJHGUvFRXpn1j-49" value="+" style="strokeWidth=1;shadow=0;dashed=0;align=center;html=1;shape=mxgraph.mockup.buttons.button;strokeColor=#666666;fontColor=#ffffff;mainText=;buttonStyle=round;fontSize=17;fontStyle=1;fillColor=#008cff;whiteSpace=wrap;" parent="1" vertex="1">
          <mxGeometry x="570" y="220" width="40" height="30" as="geometry" />
        </mxCell>
        <mxCell id="qxxUC0PWJHGUvFRXpn1j-50" value="-" style="strokeWidth=1;shadow=0;dashed=0;align=center;html=1;shape=mxgraph.mockup.buttons.button;strokeColor=#666666;fontColor=#ffffff;mainText=;buttonStyle=round;fontSize=17;fontStyle=1;fillColor=#008cff;whiteSpace=wrap;" parent="1" vertex="1">
          <mxGeometry x="610" y="220" width="40" height="30" as="geometry" />
        </mxCell>
        <mxCell id="qxxUC0PWJHGUvFRXpn1j-51" value="..." style="strokeWidth=1;shadow=0;dashed=0;align=center;html=1;shape=mxgraph.mockup.buttons.button;strokeColor=#666666;fontColor=#ffffff;mainText=;buttonStyle=round;fontSize=17;fontStyle=1;fillColor=#008cff;whiteSpace=wrap;" parent="1" vertex="1">
          <mxGeometry x="650" y="220" width="40" height="30" as="geometry" />
        </mxCell>
        <mxCell id="qxxUC0PWJHGUvFRXpn1j-55" value="" style="endArrow=classic;html=1;rounded=0;exitX=0.3;exitY=1.008;exitDx=0;exitDy=0;exitPerimeter=0;" parent="1" source="qxxUC0PWJHGUvFRXpn1j-10" edge="1">
          <mxGeometry width="50" height="50" relative="1" as="geometry">
            <mxPoint x="100" y="500" as="sourcePoint" />
            <mxPoint x="78" y="510" as="targetPoint" />
          </mxGeometry>
        </mxCell>
        <mxCell id="qxxUC0PWJHGUvFRXpn1j-56" value="&lt;div&gt;&lt;b&gt;Add/Remove/Edit Tours&lt;/b&gt;&lt;/div&gt;" style="text;html=1;strokeColor=none;fillColor=none;align=center;verticalAlign=middle;whiteSpace=wrap;rounded=0;" parent="1" vertex="1">
          <mxGeometry x="80" y="440" width="150" height="30" as="geometry" />
        </mxCell>
        <mxCell id="qxxUC0PWJHGUvFRXpn1j-57" value="Tour View" style="strokeWidth=1;shadow=0;dashed=0;align=center;html=1;shape=mxgraph.mockup.containers.window;align=left;verticalAlign=top;spacingLeft=8;strokeColor2=#008cff;strokeColor3=#c4c4c4;mainText=;fontSize=17;labelBackgroundColor=none;whiteSpace=wrap;fontStyle=4;" parent="1" vertex="1">
          <mxGeometry x="30" y="510" width="650" height="310" as="geometry" />
        </mxCell>
        <mxCell id="qxxUC0PWJHGUvFRXpn1j-58" value="Line 1" style="strokeWidth=1;shadow=0;dashed=0;align=center;html=1;shape=mxgraph.mockup.text.textBox;fontColor=#666666;align=left;fontSize=17;spacingLeft=4;spacingTop=-3;whiteSpace=wrap;strokeColor=#666666;mainText=" parent="1" vertex="1">
          <mxGeometry x="110" y="540" width="500" height="30" as="geometry" />
        </mxCell>
        <mxCell id="qxxUC0PWJHGUvFRXpn1j-59" value="Line 1" style="strokeWidth=1;shadow=0;dashed=0;align=center;html=1;shape=mxgraph.mockup.text.textBox;fontColor=#666666;align=left;fontSize=17;spacingLeft=4;spacingTop=-3;whiteSpace=wrap;strokeColor=#666666;mainText=" parent="1" vertex="1">
          <mxGeometry x="110" y="570" width="500" height="70" as="geometry" />
        </mxCell>
        <mxCell id="qxxUC0PWJHGUvFRXpn1j-60" value="Line 1" style="strokeWidth=1;shadow=0;dashed=0;align=center;html=1;shape=mxgraph.mockup.text.textBox;fontColor=#666666;align=left;fontSize=17;spacingLeft=4;spacingTop=-3;whiteSpace=wrap;strokeColor=#666666;mainText=" parent="1" vertex="1">
          <mxGeometry x="110" y="640" width="500" height="30" as="geometry" />
        </mxCell>
        <mxCell id="qxxUC0PWJHGUvFRXpn1j-64" value="name" style="text;html=1;strokeColor=none;fillColor=none;align=center;verticalAlign=middle;whiteSpace=wrap;rounded=0;" parent="1" vertex="1">
          <mxGeometry x="42" y="540" width="60" height="30" as="geometry" />
        </mxCell>
        <mxCell id="qxxUC0PWJHGUvFRXpn1j-65" value="description" style="text;html=1;strokeColor=none;fillColor=none;align=center;verticalAlign=middle;whiteSpace=wrap;rounded=0;fontFamily=Comic Sans MS;" parent="1" vertex="1">
          <mxGeometry x="42" y="570" width="60" height="30" as="geometry" />
        </mxCell>
        <mxCell id="qxxUC0PWJHGUvFRXpn1j-67" value="transport type" style="text;html=1;strokeColor=none;fillColor=none;align=center;verticalAlign=middle;whiteSpace=wrap;rounded=0;fontFamily=Lucida Console;" parent="1" vertex="1">
          <mxGeometry x="42" y="640" width="60" height="30" as="geometry" />
        </mxCell>
        <mxCell id="qxxUC0PWJHGUvFRXpn1j-94" value="Confirm" style="strokeWidth=1;shadow=0;dashed=0;align=center;html=1;shape=mxgraph.mockup.buttons.button;strokeColor=#666666;fontColor=#ffffff;mainText=;buttonStyle=round;fontSize=17;fontStyle=1;fillColor=#008cff;whiteSpace=wrap;fontFamily=Comic Sans MS;" parent="1" vertex="1">
          <mxGeometry x="460" y="760" width="150" height="30" as="geometry" />
        </mxCell>
        <mxCell id="mKpqcn-V0OogtvFFZ2Y_-1" value="start" style="text;html=1;strokeColor=none;fillColor=none;align=center;verticalAlign=middle;whiteSpace=wrap;rounded=0;fontFamily=Lucida Console;" vertex="1" parent="1">
          <mxGeometry x="42" y="675" width="60" height="30" as="geometry" />
        </mxCell>
        <mxCell id="mKpqcn-V0OogtvFFZ2Y_-3" value="Line 1" style="strokeWidth=1;shadow=0;dashed=0;align=center;html=1;shape=mxgraph.mockup.text.textBox;fontColor=#666666;align=left;fontSize=17;spacingLeft=4;spacingTop=-3;whiteSpace=wrap;strokeColor=#666666;mainText=" vertex="1" parent="1">
          <mxGeometry x="110" y="670" width="500" height="40" as="geometry" />
        </mxCell>
        <mxCell id="mKpqcn-V0OogtvFFZ2Y_-4" value="end" style="text;html=1;strokeColor=none;fillColor=none;align=center;verticalAlign=middle;whiteSpace=wrap;rounded=0;fontFamily=Lucida Console;" vertex="1" parent="1">
          <mxGeometry x="42" y="710" width="60" height="30" as="geometry" />
        </mxCell>
        <mxCell id="mKpqcn-V0OogtvFFZ2Y_-5" value="Line 1" style="strokeWidth=1;shadow=0;dashed=0;align=center;html=1;shape=mxgraph.mockup.text.textBox;fontColor=#666666;align=left;fontSize=17;spacingLeft=4;spacingTop=-3;whiteSpace=wrap;strokeColor=#666666;mainText=" vertex="1" parent="1">
          <mxGeometry x="110" y="710" width="500" height="40" as="geometry" />
        </mxCell>
        <mxCell id="mKpqcn-V0OogtvFFZ2Y_-6" value="&lt;div&gt;Tour Log View&lt;/div&gt;&lt;div&gt;&lt;br&gt;&lt;/div&gt;" style="strokeWidth=1;shadow=0;dashed=0;align=center;html=1;shape=mxgraph.mockup.containers.window;align=left;verticalAlign=top;spacingLeft=8;strokeColor2=#008cff;strokeColor3=#c4c4c4;fontColor=#666666;mainText=;fontSize=17;labelBackgroundColor=none;whiteSpace=wrap;fontStyle=4" vertex="1" parent="1">
          <mxGeometry x="30" y="960" width="650" height="400" as="geometry" />
        </mxCell>
        <mxCell id="mKpqcn-V0OogtvFFZ2Y_-7" value="Line 1" style="strokeWidth=1;shadow=0;dashed=0;align=center;html=1;shape=mxgraph.mockup.text.textBox;fontColor=#666666;align=left;fontSize=17;spacingLeft=4;spacingTop=-3;whiteSpace=wrap;strokeColor=#666666;mainText=" vertex="1" parent="1">
          <mxGeometry x="110" y="990" width="500" height="30" as="geometry" />
        </mxCell>
        <mxCell id="mKpqcn-V0OogtvFFZ2Y_-8" value="Line 1" style="strokeWidth=1;shadow=0;dashed=0;align=center;html=1;shape=mxgraph.mockup.text.textBox;fontColor=#666666;align=left;fontSize=17;spacingLeft=4;spacingTop=-3;whiteSpace=wrap;strokeColor=#666666;mainText=" vertex="1" parent="1">
          <mxGeometry x="110" y="1020" width="500" height="70" as="geometry" />
        </mxCell>
        <mxCell id="mKpqcn-V0OogtvFFZ2Y_-9" value="Line 1" style="strokeWidth=1;shadow=0;dashed=0;align=center;html=1;shape=mxgraph.mockup.text.textBox;fontColor=#666666;align=left;fontSize=17;spacingLeft=4;spacingTop=-3;whiteSpace=wrap;strokeColor=#666666;mainText=" vertex="1" parent="1">
          <mxGeometry x="110" y="1090" width="500" height="30" as="geometry" />
        </mxCell>
        <mxCell id="mKpqcn-V0OogtvFFZ2Y_-10" value="name" style="text;html=1;strokeColor=none;fillColor=none;align=center;verticalAlign=middle;whiteSpace=wrap;rounded=0;" vertex="1" parent="1">
          <mxGeometry x="42" y="990" width="60" height="30" as="geometry" />
        </mxCell>
        <mxCell id="mKpqcn-V0OogtvFFZ2Y_-11" value="comment" style="text;html=1;strokeColor=none;fillColor=none;align=center;verticalAlign=middle;whiteSpace=wrap;rounded=0;fontFamily=Comic Sans MS;" vertex="1" parent="1">
          <mxGeometry x="42" y="1020" width="60" height="30" as="geometry" />
        </mxCell>
        <mxCell id="mKpqcn-V0OogtvFFZ2Y_-12" value="date" style="text;html=1;strokeColor=none;fillColor=none;align=center;verticalAlign=middle;whiteSpace=wrap;rounded=0;fontFamily=Lucida Console;" vertex="1" parent="1">
          <mxGeometry x="42" y="1090" width="60" height="30" as="geometry" />
        </mxCell>
        <mxCell id="mKpqcn-V0OogtvFFZ2Y_-13" value="Confirm" style="strokeWidth=1;shadow=0;dashed=0;align=center;html=1;shape=mxgraph.mockup.buttons.button;strokeColor=#666666;fontColor=#ffffff;mainText=;buttonStyle=round;fontSize=17;fontStyle=1;fillColor=#008cff;whiteSpace=wrap;fontFamily=Comic Sans MS;" vertex="1" parent="1">
          <mxGeometry x="460" y="1300" width="150" height="30" as="geometry" />
        </mxCell>
        <mxCell id="mKpqcn-V0OogtvFFZ2Y_-14" value="time" style="text;html=1;strokeColor=none;fillColor=none;align=center;verticalAlign=middle;whiteSpace=wrap;rounded=0;fontFamily=Lucida Console;" vertex="1" parent="1">
          <mxGeometry x="42" y="1125" width="60" height="30" as="geometry" />
        </mxCell>
        <mxCell id="mKpqcn-V0OogtvFFZ2Y_-15" value="Line 1" style="strokeWidth=1;shadow=0;dashed=0;align=center;html=1;shape=mxgraph.mockup.text.textBox;fontColor=#666666;align=left;fontSize=17;spacingLeft=4;spacingTop=-3;whiteSpace=wrap;strokeColor=#666666;mainText=" vertex="1" parent="1">
          <mxGeometry x="110" y="1120" width="500" height="40" as="geometry" />
        </mxCell>
        <mxCell id="mKpqcn-V0OogtvFFZ2Y_-16" value="total time" style="text;html=1;strokeColor=none;fillColor=none;align=center;verticalAlign=middle;whiteSpace=wrap;rounded=0;fontFamily=Lucida Console;" vertex="1" parent="1">
          <mxGeometry x="42" y="1160" width="60" height="30" as="geometry" />
        </mxCell>
        <mxCell id="mKpqcn-V0OogtvFFZ2Y_-17" value="Line 1" style="strokeWidth=1;shadow=0;dashed=0;align=center;html=1;shape=mxgraph.mockup.text.textBox;fontColor=#666666;align=left;fontSize=17;spacingLeft=4;spacingTop=-3;whiteSpace=wrap;strokeColor=#666666;mainText=" vertex="1" parent="1">
          <mxGeometry x="110" y="1160" width="500" height="40" as="geometry" />
        </mxCell>
        <mxCell id="mKpqcn-V0OogtvFFZ2Y_-18" value="" style="endArrow=classic;html=1;rounded=0;exitX=0.3;exitY=1.008;exitDx=0;exitDy=0;exitPerimeter=0;entryX=0.065;entryY=-0.006;entryDx=0;entryDy=0;entryPerimeter=0;" edge="1" parent="1" target="mKpqcn-V0OogtvFFZ2Y_-6">
          <mxGeometry width="50" height="50" relative="1" as="geometry">
            <mxPoint x="71.5" y="820" as="sourcePoint" />
            <mxPoint x="71.5" y="928" as="targetPoint" />
          </mxGeometry>
        </mxCell>
        <mxCell id="mKpqcn-V0OogtvFFZ2Y_-19" value="&lt;b&gt;Add/Remove/Edit TourLogs&lt;br&gt;&lt;/b&gt;" style="text;html=1;strokeColor=none;fillColor=none;align=center;verticalAlign=middle;whiteSpace=wrap;rounded=0;" vertex="1" parent="1">
          <mxGeometry x="80" y="880" width="150" height="30" as="geometry" />
        </mxCell>
        <mxCell id="mKpqcn-V0OogtvFFZ2Y_-20" value="Line 1" style="strokeWidth=1;shadow=0;dashed=0;align=center;html=1;shape=mxgraph.mockup.text.textBox;fontColor=#666666;align=left;fontSize=17;spacingLeft=4;spacingTop=-3;whiteSpace=wrap;strokeColor=#666666;mainText=" vertex="1" parent="1">
          <mxGeometry x="110" y="1200" width="500" height="40" as="geometry" />
        </mxCell>
        <mxCell id="mKpqcn-V0OogtvFFZ2Y_-21" value="rating" style="text;html=1;strokeColor=none;fillColor=none;align=center;verticalAlign=middle;whiteSpace=wrap;rounded=0;fontFamily=Lucida Console;" vertex="1" parent="1">
          <mxGeometry x="42" y="1200" width="60" height="30" as="geometry" />
        </mxCell>
      </root>
    </mxGraphModel>
  </diagram>
</mxfile>
